<!-- icon666.com - MILLIONS vector ICONS FREE --><svg id="Layer_1" enable-background="new 0 0 256 256" viewBox="0 0 256 256" xmlns="http://www.w3.org/2000/svg"><g><path d="m16.056 194.764v-162.497c0-11.416 9.254-20.67 20.67-20.67h142.574v183.167z" fill="#cecece"></path><g><path d="m172.8 11.597h6.5v183.167h-6.5z" fill="#e2e2e2"></path></g><g><path d="m43.226 11.597h-6.5c-11.416 0-20.67 9.254-20.67 20.67v162.497h6.5v-162.497c0-11.416 9.254-20.67 20.67-20.67z" fill="#afafaf"></path></g><path d="m179.3 215.43h-142.577c-11.414 0-20.667-9.253-20.667-20.667 0-11.414 9.253-20.667 20.667-20.667h142.577z" fill="#9e9e9e"></path><g><path d="m22.556 194.764c0-11.414 9.253-20.667 20.667-20.667h-6.5c-11.414 0-20.667 9.253-20.667 20.667s9.253 20.667 20.667 20.667h6.5c-11.414-.001-20.667-9.254-20.667-20.667z" fill="#707070"></path></g><path d="m63.347 233.43-14.171-11.944-14.171 11.944v-38.666h28.342z" fill="#f46275"></path><g><path d="m104.36 38.031c-5.334 3.464-17.81 10.722-33.045 13.94-2.4.507-4.141 2.586-4.141 5.039v41.148c0 4.326.647 8.627 1.919 12.762 2.766 8.989 8.377 16.836 15.988 22.36l20.255 14.7c1.083.786 2.549.786 3.632 0l20.255-14.7c7.611-5.524 13.223-13.371 15.988-22.36 1.272-4.135 1.919-8.436 1.919-12.762v-41.148c0-2.453-1.741-4.532-4.141-5.039-15.236-3.218-27.711-10.476-33.045-13.94-1.702-1.105-3.882-1.105-5.584 0z" fill="#63bce7"></path><path d="m122.342 68.031-23.629 26.973-7.744-6.256c-3.449-2.784-8.501-2.252-11.287 1.184-2.79 3.43-2.262 8.468 1.181 11.252l19.766 15.959 33.803-38.584c2.916-3.328 2.573-8.383-.767-11.29-3.334-2.904-8.411-2.566-11.323.762z" fill="#f8af23"></path></g><path d="m197.303 148.838c-5.264-3.213-11.437-5.068-18.022-5.068-6.585 0-12.758 1.855-18.022 5.068-10.027 6.12-16.757 17.167-16.757 29.711v20.102c0 12.543 6.73 23.59 16.757 29.71 5.264 3.213 11.437 5.069 18.022 5.069 6.585 0 12.758-1.855 18.022-5.069 10.027-6.12 16.757-17.167 16.757-29.71v-20.102c0-12.543-6.73-23.59-16.757-29.711z" fill="#9e9e9e"></path><g><path d="m197.303 148.838c-5.264-3.213-11.437-5.068-18.022-5.068-1.097 0-2.178.07-3.25.171 5.362.504 10.385 2.22 14.772 4.898 10.027 6.12 16.757 17.167 16.757 29.711v20.102c0 12.543-6.73 23.59-16.757 29.71-4.387 2.678-9.41 4.394-14.772 4.898 1.072.101 2.153.171 3.25.171 6.585 0 12.758-1.855 18.022-5.068 10.027-6.12 16.757-17.167 16.757-29.71v-20.102c0-12.545-6.73-23.592-16.757-29.713z" fill="#cecece"></path></g><path d="m144.502 180.14h69.558v18.005h-69.558z" fill="#f8af23"></path><g><path d="m207.56 180.14h6.5v18.005h-6.5z" fill="#f8d323"></path></g><g fill="#3f3679"><circle cx="163.579" cy="192.371" r="3.229"></circle><circle cx="194.983" cy="192.371" r="3.229"></circle></g><path d="m239.507 155.272c4.179 9.119-22.077 28.951-60.208 28.898-38.131.052-64.387-19.779-60.208-28.898 3.97-9.481 30.388-7.581 60.208-7.883 29.818.302 56.238-1.598 60.208 7.883z" fill="#9e9e9e"></path><g><path d="m239.507 155.272c-3.255-7.772-21.6-7.896-44.532-7.854 19.83.054 35.091.832 38.032 7.854 4.06 8.858-20.598 27.817-56.958 28.85 1.074.031 2.156.05 3.25.048 38.132.053 64.388-19.779 60.208-28.898z" fill="#cecece"></path></g><path d="m204.816 122.454s-19.093 3.009-25.516 3.009-25.516-3.009-25.516-3.009c-2.126-.251-3.993 1.41-3.993 3.55v28.989c0 3.396 13.212 6.148 29.51 6.148s29.51-2.753 29.51-6.148v-28.989c-.002-2.14-1.87-3.8-3.995-3.55z" fill="#9e9e9e"></path><g><path d="m204.816 122.454s-1.621.255-4.07.616c.932.641 1.564 1.701 1.564 2.934v28.989c0 3.167-11.492 5.773-26.26 6.11 1.068.024 2.151.038 3.25.038 16.298 0 29.51-2.753 29.51-6.148v-28.989c-.001-2.14-1.869-3.8-3.994-3.55z" fill="#cecece"></path></g><g fill="#3f3679"><path d="m27.323 242.903h-18.003c-.828 0-1.5.671-1.5 1.5s.672 1.5 1.5 1.5h18.003c.828 0 1.5-.671 1.5-1.5s-.672-1.5-1.5-1.5z"></path><path d="m246.68 242.903h-18.003c-.828 0-1.5.671-1.5 1.5s.672 1.5 1.5 1.5h18.003c.828 0 1.5-.671 1.5-1.5s-.672-1.5-1.5-1.5z"></path><path d="m218.479 242.903h-180.958c-.828 0-1.5.671-1.5 1.5s.672 1.5 1.5 1.5h180.959c.828 0 1.5-.671 1.5-1.5s-.672-1.5-1.501-1.5z"></path><path d="m9.32 234.93h237.36c.828 0 1.5-.671 1.5-1.5s-.672-1.5-1.5-1.5h-52.998c1.512-.659 2.983-1.422 4.402-2.288 10.779-6.579 17.476-18.454 17.476-30.991v-19.341c.959-.364 1.875-.727 2.722-1.082 9.968-4.183 17.701-9.719 21.217-15.189 2.518-3.918 2.136-6.727 1.393-8.347-2.789-6.662-13.767-8.301-30.581-8.676v-20.013c0-1.448-.621-2.831-1.703-3.792s-2.517-1.419-3.966-1.248c-.02.002-.038.005-.058.008-.176.028-16.48 2.587-23.783 2.947v-112.321c0-.829-.672-1.5-1.5-1.5h-142.575c-12.225 0-22.17 9.946-22.17 22.17v162.497c0 11.059 8.097 20.334 18.949 21.911v15.255h-24.185c-.828 0-1.5.671-1.5 1.5s.672 1.5 1.5 1.5zm52.527-4.726-11.704-9.865c-.279-.235-.623-.353-.967-.353s-.688.118-.967.353l-11.704 9.865v-33.94h25.342zm3 1.726v-15h83.184c3.007 5.121 7.245 9.537 12.447 12.712 1.419.866 2.89 1.63 4.402 2.288zm131.674-4.848c-5.197 3.172-11.159 4.849-17.241 4.849s-12.043-1.677-17.24-4.849c-9.607-5.864-15.662-16.308-16.005-27.437h31.746v11.687c0 .829.672 1.5 1.5 1.5s1.5-.671 1.5-1.5v-11.687h31.745c-.342 11.128-6.398 21.573-16.005 27.437zm16.039-30.437h-66.558v-16.271c5.302 1.801 11.949 3.508 19.79 4.476h-9.455c-.828 0-1.5.671-1.5 1.5s.672 1.5 1.5 1.5h14.483c.828 0 1.5-.671 1.5-1.5 0-.347-.123-.663-.321-.917 2.3.149 4.676.238 7.144.238h.309c2.455 0 4.819-.088 7.108-.235-.197.254-.319.568-.319.914 0 .829.672 1.5 1.5 1.5h14.483c.828 0 1.5-.671 1.5-1.5s-.672-1.5-1.5-1.5h-9.421c7.824-.966 14.46-2.667 19.756-4.463v16.258zm25.584-40.748c.818 1.786-.185 3.988-1.17 5.521-5.678 8.835-27.268 21.253-57.524 21.253-.101 0-.2 0-.303 0-30.251 0-51.844-12.418-57.521-21.253-.985-1.533-1.988-3.735-1.149-5.566 2.287-5.464 15.214-6.554 27.814-6.837v5.979c0 6.037 19.492 7.648 31.01 7.648s31.01-1.611 31.01-7.648v-5.98c12.635.284 25.532 1.39 27.833 6.883zm-30.83-.945c-.543 1.637-10.644 4.69-28.015 4.69s-27.472-3.053-28.01-4.648v-10.659c5.91 3.096 19.258 4.028 28.01 4.028 8.753 0 22.104-.933 28.013-4.03zm-2.296-31.011c.579-.061 1.152.119 1.596.513.449.399.696.95.696 1.551l.002 14.671c-.556 1.638-10.653 4.687-28.012 4.687-17.321 0-27.414-3.036-28.01-4.676v-14.682c0-.601.247-1.152.696-1.551.391-.348.878-.53 1.354-.53.07 0 .141.004.21.012.784.124 19.283 3.027 25.75 3.027 6.394 0 24.556-2.839 25.718-3.022zm-187.462-91.674c0-9.471 6.91-17.339 15.949-18.878v136.457c0 .829.672 1.5 1.5 1.5s1.5-.671 1.5-1.5v-136.738c.074-.001.146-.011.221-.011h141.074v110.823c-7.304-.361-23.611-2.92-23.841-2.955-1.441-.173-2.885.285-3.966 1.247-1.082.962-1.703 2.345-1.703 3.793v20.013c-16.357.367-27.797 2.025-30.562 8.63-.764 1.666-1.146 4.474 1.372 8.392 2.097 3.264 5.705 6.548 10.384 9.558h-92.761c-8.174 0-15.324 4.451-19.167 11.053zm0 162.497c0-10.569 8.599-19.167 19.167-19.167h97.962c1.781.922 3.661 1.804 5.633 2.631.835.351 1.74.708 2.685 1.068v13.968h-66.242c-.828 0-1.5.671-1.5 1.5s.672 1.5 1.5 1.5h66.241v2.388c0 5.333 1.222 10.542 3.445 15.279h-81.6v-19.167c0-.829-.672-1.5-1.5-1.5h-28.342c-.828 0-1.5.671-1.5 1.5v18.878c-9.163-1.545-15.949-9.463-15.949-18.878zm31.62 28.684 10.064 8.482h-20.128z"></path><path d="m84.2 134.494 20.255 14.699c.807.586 1.752.879 2.697.879.944 0 1.89-.293 2.696-.878l20.256-14.699c7.824-5.678 13.698-13.894 16.541-23.132 1.317-4.28 1.985-8.723 1.985-13.203v-41.15c0-3.118-2.242-5.854-5.331-6.506-15.245-3.22-27.834-10.675-32.539-13.731-2.191-1.423-5.025-1.423-7.217 0h-.001c-4.704 3.056-17.293 10.51-32.538 13.73-3.089.653-5.331 3.389-5.331 6.506v41.148c0 4.48.668 8.923 1.985 13.203 2.844 9.24 8.718 17.455 16.542 23.134zm-15.526-77.484c0-1.735 1.213-3.204 2.95-3.571 15.172-3.205 27.534-10.241 33.554-14.15 1.199-.778 2.75-.778 3.949 0 6.02 3.909 18.382 10.946 33.554 14.15 1.737.367 2.95 1.835 2.95 3.571v41.148c0 4.181-.623 8.327-1.853 12.321-2.652 8.622-8.135 16.288-15.436 21.587l-20.256 14.699c-.561.406-1.311.405-1.869 0l-20.256-14.699c-7.301-5.299-12.783-12.965-15.436-21.587-1.229-3.994-1.853-8.139-1.853-12.32v-41.149z"></path><path d="m79.92 102.351 19.767 15.959c.277.224.61.333.941.333.418 0 .833-.174 1.129-.512l33.804-38.584c1.675-1.911 2.503-4.358 2.331-6.891-.171-2.534-1.322-4.85-3.241-6.52-3.958-3.445-9.984-3.039-13.437.906l-22.68 25.889-6.623-5.351c-4.086-3.296-10.094-2.665-13.394 1.405-1.602 1.969-2.338 4.442-2.075 6.965.264 2.527 1.498 4.8 3.478 6.401zm.927-11.475c1.286-1.587 3.173-2.411 5.076-2.411 1.443 0 2.896.474 4.104 1.449l7.744 6.256c.626.506 1.541.427 2.07-.179l23.629-26.973h.001c2.365-2.704 6.496-2.98 9.21-.619 1.313 1.143 2.101 2.727 2.218 4.459.117 1.731-.449 3.404-1.594 4.711l-32.854 37.5-18.645-15.053c-1.354-1.095-2.199-2.65-2.38-4.378-.18-1.723.324-3.414 1.421-4.762z"></path><path d="m179.624 171.622c-22.396 0-38.532-9.406-42.392-15.776-.431-.709-1.354-.935-2.061-.505-.708.429-.935 1.352-.506 2.06 4.338 7.159 21.146 17.222 44.952 17.222h.226c20.711 0 37.78-7.925 43.947-15.768.513-.651.399-1.594-.252-2.106-.65-.513-1.594-.399-2.105.252-7.476 9.506-26.997 14.623-41.615 14.623-.063-.001-.129-.002-.194-.002z"></path></g></g></svg>